D:\school\WTK\thesis\model\3dpredictsim\Results\batch_windlass\Pog_s1_tmt_aCst_d05_k1000_WL30_ig24_pas_GRF.mot
nRows=27
nColumns=19

name D:\school\WTK\thesis\model\3dpredictsim\Results\batch_windlass\Pog_s1_tmt_aCst_d05_k1000_WL30_ig24_pas_GRF.mot
datacolumns 19
datarows 27
range 0.5442007597 0.8271851547
endheader
time 	ground_force_vx	ground_force_vy	ground_force_vz	ground_force_px	ground_force_py	ground_force_pz	1_ground_force_vx	1_ground_force_vy	1_ground_force_vz	1_ground_force_px	1_ground_force_py	1_ground_force_pz	ground_torque_x	ground_torque_y	ground_torque_z	1_ground_torque_x	1_ground_torque_y	1_ground_torque_z
        0.5442007597	       88.1416951275	      443.9425120493	        3.2075914551	        0.3508987130	        0.0000000000	        0.0360000849	      -94.9839830529	       73.4284972523	      -26.6373469976	        0.8240629511	        0.0000000000	       -0.0432573203	        0.0000000000	        0.0000000000	        0.0000000000	        0.0000000000	        0.0000000000	        0.0000000000	
        0.5550847748	       64.5315636049	      358.7564344659	        9.2779156968	        0.3562177173	        0.0000000000	        0.0340365992	     -147.3617568614	      154.8507432473	      -63.2987564176	        0.8340587221	        0.0000000000	       -0.0417999128	        0.0000000000	        0.0000000000	        0.0000000000	        0.0000000000	        0.0000000000	        0.0000000000	
        0.5659687900	       35.8784999977	      262.1888924524	       12.1395508532	        0.3649902846	        0.0000000000	        0.0301628636	      -60.1663534814	      336.5737957272	      -26.8951425816	        0.8477059659	        0.0000000000	       -0.0424010318	        0.0000000000	        0.0000000000	        0.0000000000	        0.0000000000	        0.0000000000	        0.0000000000	
        0.5768528052	       15.1621514473	      179.8659551886	       11.6003741277	        0.3778525311	        0.0000000000	        0.0234948713	      -63.9397206902	      566.9538298759	        3.0054655454	        0.8562970383	        0.0000000000	       -0.0442511839	        0.0000000000	        0.0000000000	        0.0000000000	        0.0000000000	        0.0000000000	        0.0000000000	
        0.5877368204	        1.9419063161	      148.3588151951	       11.9230074710	        0.3800528472	        0.0000000000	        0.0220538888	      -83.2974584659	      739.2168747764	       12.0531694028	        0.8619978353	        0.0000000000	       -0.0453239734	        0.0000000000	        0.0000000000	        0.0000000000	        0.0000000000	        0.0000000000	        0.0000000000	
        0.5986208356	       -2.6622196573	      112.7392172761	       12.3641362375	        0.3803093207	        0.0000000000	        0.0221498601	     -104.8192957081	      830.7886950350	       15.8749917189	        0.8684087688	        0.0000000000	       -0.0457738593	        0.0000000000	        0.0000000000	        0.0000000000	        0.0000000000	        0.0000000000	        0.0000000000	
        0.6095048508	      -11.5229133715	       71.1545979830	       10.9948756124	        0.3800577546	        0.0000000000	        0.0222231713	     -118.3402901921	      880.4602772098	       14.7339887209	        0.8754602671	        0.0000000000	       -0.0456344613	        0.0000000000	        0.0000000000	        0.0000000000	        0.0000000000	        0.0000000000	        0.0000000000	
        0.6203888660	      -10.8799183780	       24.3129018212	        4.4448695945	        0.3797241918	        0.0000000000	        0.0219364770	     -115.8758172066	      882.5889535232	       14.4623192952	        0.8821770830	        0.0000000000	       -0.0451836526	        0.0000000000	        0.0000000000	        0.0000000000	        0.0000000000	        0.0000000000	        0.0000000000	
        0.6312728812	        0.1438629384	       -0.1387123211	       -0.0016448281	        0.0000000000	        0.0000000000	        0.0000000000	     -101.7956112253	      847.7052305503	       14.1438839201	        0.8862458972	        0.0000000000	       -0.0447615973	        0.0000000000	        0.0000000000	        0.0000000000	        0.0000000000	        0.0000000000	        0.0000000000	
        0.6421568964	        0.0008988287	       -0.0007138750	        0.0000411163	        0.0000000000	        0.0000000000	        0.0000000000	      -86.1792702971	      798.8338599779	       14.8992036394	        0.8894968293	        0.0000000000	       -0.0444818895	        0.0000000000	        0.0000000000	        0.0000000000	        0.0000000000	        0.0000000000	        0.0000000000	
        0.6530409116	        0.0004678659	       -0.0003227208	        0.0000284652	        0.0000000000	        0.0000000000	        0.0000000000	      -72.4380786132	      751.2855483119	       15.2869017949	        0.8925004043	        0.0000000000	       -0.0443270906	        0.0000000000	        0.0000000000	        0.0000000000	        0.0000000000	        0.0000000000	        0.0000000000	
        0.6639249268	        0.0024705005	       -0.0015323158	        0.0001683188	        0.0000000000	        0.0000000000	        0.0000000000	      -60.5261781906	      710.1853333378	       15.9404952577	        0.8955147332	        0.0000000000	       -0.0442637368	        0.0000000000	        0.0000000000	        0.0000000000	        0.0000000000	        0.0000000000	        0.0000000000	
        0.6748089420	        0.0126462133	       -0.0072206716	        0.0009202870	        0.0000000000	        0.0000000000	        0.0000000000	      -50.1892149528	      675.6114999798	       16.7297278225	        0.8987340068	        0.0000000000	       -0.0442690391	        0.0000000000	        0.0000000000	        0.0000000000	        0.0000000000	        0.0000000000	        0.0000000000	
        0.6856929572	       -0.0654296885	        0.0349712948	       -0.0049754081	        0.0000000000	        0.0000000000	        0.0000000000	      -41.1261716815	      647.3904629355	       17.6438953997	        0.9024981369	        0.0000000000	       -0.0443156358	        0.0000000000	        0.0000000000	        0.0000000000	        0.0000000000	        0.0000000000	        0.0000000000	
        0.6965769724	       -0.0461007450	        0.0233004104	       -0.0036357679	        0.0000000000	        0.0000000000	        0.0000000000	      -33.7002723359	      625.4615845987	       18.6046959748	        0.9070575158	        0.0000000000	       -0.0443644716	        0.0000000000	        0.0000000000	        0.0000000000	        0.0000000000	        0.0000000000	        0.0000000000	
        0.7074609875	       -0.0301982756	        0.0145327112	       -0.0024570799	        0.0000000000	        0.0000000000	        0.0000000000	      -28.5316578697	      609.0830955128	       19.3878820703	        0.9121901372	        0.0000000000	       -0.0443836959	        0.0000000000	        0.0000000000	        0.0000000000	        0.0000000000	        0.0000000000	        0.0000000000	
        0.7183450027	       -0.0241642731	        0.0111385277	       -0.0020097644	        0.0000000000	        0.0000000000	        0.0000000000	      -24.8552666777	      597.2680739242	       19.6289821472	        0.9174778665	        0.0000000000	       -0.0443717575	        0.0000000000	        0.0000000000	        0.0000000000	        0.0000000000	        0.0000000000	        0.0000000000	
        0.7292290179	       -0.0250787062	        0.0111279847	       -0.0021081121	        0.0000000000	        0.0000000000	        0.0000000000	      -21.5351005799	      589.2304804599	       19.6879942334	        0.9229353220	        0.0000000000	       -0.0443262718	        0.0000000000	        0.0000000000	        0.0000000000	        0.0000000000	        0.0000000000	        0.0000000000	
        0.7401130331	       -0.0331501892	        0.0142188035	       -0.0027894416	        0.0000000000	        0.0000000000	        0.0000000000	      -19.6945115456	      584.2431017129	       19.5756847082	        0.9285121543	        0.0000000000	       -0.0442411607	        0.0000000000	        0.0000000000	        0.0000000000	        0.0000000000	        0.0000000000	        0.0000000000	
        0.7509970483	       -0.0528116375	        0.0219819663	       -0.0044206321	        0.0000000000	        0.0000000000	        0.0000000000	      -18.6900385811	      581.5130044603	       19.2365265968	        0.9339597283	        0.0000000000	       -0.0441303981	        0.0000000000	        0.0000000000	        0.0000000000	        0.0000000000	        0.0000000000	        0.0000000000	
        0.7618810635	       -0.0942522194	        0.0382225495	       -0.0078176773	        0.0000000000	        0.0000000000	        0.0000000000	      -17.4208382816	      580.1261114428	       19.0766206915	        0.9393428969	        0.0000000000	       -0.0439951194	        0.0000000000	        0.0000000000	        0.0000000000	        0.0000000000	        0.0000000000	        0.0000000000	
        0.7727650787	       -0.1750336068	        0.0694316871	       -0.0143748141	        0.0000000000	        0.0000000000	        0.0000000000	      -15.9429054358	      578.6550868334	       19.0792624839	        0.9445975290	        0.0000000000	       -0.0438399288	        0.0000000000	        0.0000000000	        0.0000000000	        0.0000000000	        0.0000000000	        0.0000000000	
        0.7836490939	       -0.3171412801	        0.1235235671	       -0.0257956252	        0.0000000000	        0.0000000000	        0.0000000000	      -14.1194768639	      576.4545641555	       19.1370188472	        0.9497296154	        0.0000000000	       -0.0436709539	        0.0000000000	        0.0000000000	        0.0000000000	        0.0000000000	        0.0000000000	        0.0000000000	
        0.7945331091	       -0.5324035576	        0.2043717798	       -0.0428695154	        0.0000000000	        0.0000000000	        0.0000000000	      -12.0863194456	      572.9289526887	       19.0692282914	        0.9547184119	        0.0000000000	       -0.0434931887	        0.0000000000	        0.0000000000	        0.0000000000	        0.0000000000	        0.0000000000	        0.0000000000	
        0.8054171243	       -0.8035458583	        0.3050757139	       -0.0638960169	        0.0000000000	        0.0000000000	        0.0000000000	       -9.8059820171	      568.2102756573	       18.9439091614	        0.9596153258	        0.0000000000	       -0.0433036697	        0.0000000000	        0.0000000000	        0.0000000000	        0.0000000000	        0.0000000000	        0.0000000000	
        0.8163011395	       -1.0827188473	        0.4077923581	       -0.0845881896	        0.0000000000	        0.0000000000	        0.0000000000	       -7.2922371188	      562.6032289649	       18.5329891716	        0.9644791361	        0.0000000000	       -0.0430991598	        0.0000000000	        0.0000000000	        0.0000000000	        0.0000000000	        0.0000000000	        0.0000000000	
        0.8271851547	       -1.3165223353	        0.4930194387	       -0.1002764588	        0.0000000000	        0.0000000000	        0.0000000000	       -4.4308525151	      556.2738035460	       17.7265376573	        0.9693499418	        0.0000000000	       -0.0428755572	        0.0000000000	        0.0000000000	        0.0000000000	        0.0000000000	        0.0000000000	        0.0000000000	
